<mxfile host="app.diagrams.net" agent="Mozilla/5.0 (X11; Linux x86_64) AppleWebKit/537.36 (KHTML, like Gecko) Chrome/136.0.0.0 Safari/537.36" version="27.0.1">
  <diagram name="Page-1" id="tMXXNP4Gvz63WRGAOVup">
    <mxGraphModel dx="7953" dy="4657" grid="0" gridSize="10" guides="1" tooltips="1" connect="1" arrows="1" fold="1" page="0" pageScale="1" pageWidth="850" pageHeight="1100" background="none" math="0" shadow="0">
      <root>
        <mxCell id="0" />
        <mxCell id="1" parent="0" />
        <mxCell id="PLIj2wa3UJK4G8XW_Zh2-36" style="edgeStyle=orthogonalEdgeStyle;rounded=0;orthogonalLoop=1;jettySize=auto;html=1;" parent="1" source="PLIj2wa3UJK4G8XW_Zh2-28" target="PLIj2wa3UJK4G8XW_Zh2-33" edge="1">
          <mxGeometry relative="1" as="geometry" />
        </mxCell>
        <mxCell id="PLIj2wa3UJK4G8XW_Zh2-28" value="" style="rounded=1;whiteSpace=wrap;html=1;fontStyle=1;fontSize=18;fillColor=#eeeeee;strokeColor=#36393d;" parent="1" vertex="1">
          <mxGeometry x="145" y="-192" width="1014" height="278" as="geometry" />
        </mxCell>
        <mxCell id="QCL9CWaMX2KkeLVTbilG-2" value="tcc" style="text;html=1;align=center;verticalAlign=middle;whiteSpace=wrap;rounded=0;fontSize=160;fontStyle=1;fontFamily=Helvetica;" parent="1" vertex="1">
          <mxGeometry x="-1609" y="-1684" width="1161" height="326" as="geometry" />
        </mxCell>
        <mxCell id="QCL9CWaMX2KkeLVTbilG-7" value="events" style="text;html=1;align=center;verticalAlign=middle;whiteSpace=wrap;rounded=0;fontSize=60;fontStyle=1;fontFamily=Helvetica;" parent="1" vertex="1">
          <mxGeometry x="-1910" y="-844" width="517" height="138" as="geometry" />
        </mxCell>
        <mxCell id="QCL9CWaMX2KkeLVTbilG-38" value="design systems" style="text;html=1;align=center;verticalAlign=middle;whiteSpace=wrap;rounded=0;fontSize=60;fontStyle=1;fontFamily=Helvetica;" parent="1" vertex="1">
          <mxGeometry x="-2865" y="-844" width="517" height="138" as="geometry" />
        </mxCell>
        <mxCell id="QCL9CWaMX2KkeLVTbilG-55" value="MemoryUsageCollectedEvent" style="rounded=1;whiteSpace=wrap;html=1;fillColor=#f5f5f5;fontColor=#333333;strokeColor=#666666;fontStyle=1" parent="1" vertex="1">
          <mxGeometry x="-1874" y="-632" width="222" height="60" as="geometry" />
        </mxCell>
        <mxCell id="VkpXK9qTSNjcK0zEMSsr-28" value="CpuUsageCollectedEvent" style="rounded=1;whiteSpace=wrap;html=1;fillColor=#f5f5f5;fontColor=#333333;strokeColor=#666666;fontStyle=1" parent="1" vertex="1">
          <mxGeometry x="-1627" y="-632" width="222" height="60" as="geometry" />
        </mxCell>
        <mxCell id="PLIj2wa3UJK4G8XW_Zh2-63" style="edgeStyle=orthogonalEdgeStyle;rounded=0;orthogonalLoop=1;jettySize=auto;html=1;" parent="1" source="1jicTN_pAsYFOgk-eUM7-3" target="QCL9CWaMX2KkeLVTbilG-46" edge="1">
          <mxGeometry relative="1" as="geometry" />
        </mxCell>
        <mxCell id="1jicTN_pAsYFOgk-eUM7-3" value="Prometheus Client" style="rounded=1;whiteSpace=wrap;html=1;fillColor=#6a00ff;strokeColor=#3700CC;fontStyle=1;fontColor=#ffffff;" parent="1" vertex="1">
          <mxGeometry x="-2457" y="-278" width="300" height="75" as="geometry" />
        </mxCell>
        <mxCell id="JNNC70xLUOCxBY-MtSvW-1" value="polling X EDA" style="text;html=1;align=center;verticalAlign=middle;whiteSpace=wrap;rounded=0;fontSize=60;fontStyle=1;fontFamily=Helvetica;" parent="1" vertex="1">
          <mxGeometry x="-977" y="-844" width="517" height="138" as="geometry" />
        </mxCell>
        <mxCell id="JNNC70xLUOCxBY-MtSvW-13" style="edgeStyle=orthogonalEdgeStyle;rounded=0;orthogonalLoop=1;jettySize=auto;html=1;endArrow=none;startFill=0;" parent="1" source="JNNC70xLUOCxBY-MtSvW-2" target="JNNC70xLUOCxBY-MtSvW-6" edge="1">
          <mxGeometry relative="1" as="geometry" />
        </mxCell>
        <mxCell id="JNNC70xLUOCxBY-MtSvW-17" style="edgeStyle=orthogonalEdgeStyle;rounded=0;orthogonalLoop=1;jettySize=auto;html=1;endArrow=none;startFill=0;" parent="1" source="JNNC70xLUOCxBY-MtSvW-2" target="JNNC70xLUOCxBY-MtSvW-15" edge="1">
          <mxGeometry relative="1" as="geometry" />
        </mxCell>
        <mxCell id="JNNC70xLUOCxBY-MtSvW-2" value="Polling" style="rounded=1;whiteSpace=wrap;html=1;fillColor=#d5e8d4;strokeColor=#82b366;fontStyle=1" parent="1" vertex="1">
          <mxGeometry x="-819" y="-638" width="222" height="60" as="geometry" />
        </mxCell>
        <mxCell id="JNNC70xLUOCxBY-MtSvW-22" style="edgeStyle=orthogonalEdgeStyle;rounded=0;orthogonalLoop=1;jettySize=auto;html=1;endArrow=none;startFill=0;" parent="1" source="JNNC70xLUOCxBY-MtSvW-3" target="JNNC70xLUOCxBY-MtSvW-21" edge="1">
          <mxGeometry relative="1" as="geometry" />
        </mxCell>
        <mxCell id="JNNC70xLUOCxBY-MtSvW-24" style="edgeStyle=orthogonalEdgeStyle;rounded=0;orthogonalLoop=1;jettySize=auto;html=1;endArrow=none;startFill=0;" parent="1" source="JNNC70xLUOCxBY-MtSvW-3" target="JNNC70xLUOCxBY-MtSvW-23" edge="1">
          <mxGeometry relative="1" as="geometry" />
        </mxCell>
        <mxCell id="JNNC70xLUOCxBY-MtSvW-3" value="EDA" style="rounded=1;whiteSpace=wrap;html=1;fillColor=#fff2cc;strokeColor=#d6b656;fontStyle=1" parent="1" vertex="1">
          <mxGeometry x="-819" y="-167" width="222" height="60" as="geometry" />
        </mxCell>
        <mxCell id="JNNC70xLUOCxBY-MtSvW-19" style="edgeStyle=orthogonalEdgeStyle;rounded=0;orthogonalLoop=1;jettySize=auto;html=1;" parent="1" source="JNNC70xLUOCxBY-MtSvW-6" target="JNNC70xLUOCxBY-MtSvW-16" edge="1">
          <mxGeometry relative="1" as="geometry" />
        </mxCell>
        <mxCell id="JNNC70xLUOCxBY-MtSvW-6" value="Monitoring Agent (Prometheus)" style="rounded=1;whiteSpace=wrap;html=1;fillColor=#647687;strokeColor=#314354;fontStyle=1;fontColor=#ffffff;" parent="1" vertex="1">
          <mxGeometry x="-1159" y="-426" width="222" height="100" as="geometry" />
        </mxCell>
        <mxCell id="JNNC70xLUOCxBY-MtSvW-26" style="edgeStyle=orthogonalEdgeStyle;rounded=0;orthogonalLoop=1;jettySize=auto;html=1;" parent="1" source="JNNC70xLUOCxBY-MtSvW-7" target="JNNC70xLUOCxBY-MtSvW-21" edge="1">
          <mxGeometry relative="1" as="geometry">
            <Array as="points">
              <mxPoint x="-874" y="75" />
              <mxPoint x="-874" y="75" />
            </Array>
          </mxGeometry>
        </mxCell>
        <mxCell id="k1iTT2K7MQ_K4zx84KMY-3" style="edgeStyle=orthogonalEdgeStyle;rounded=0;orthogonalLoop=1;jettySize=auto;html=1;" parent="1" source="JNNC70xLUOCxBY-MtSvW-7" target="JNNC70xLUOCxBY-MtSvW-23" edge="1">
          <mxGeometry relative="1" as="geometry">
            <Array as="points">
              <mxPoint x="-538" y="110" />
              <mxPoint x="-538" y="110" />
            </Array>
          </mxGeometry>
        </mxCell>
        <mxCell id="JNNC70xLUOCxBY-MtSvW-7" value="Sharing Metrics Periodically &lt;br&gt;(10-second interval)&lt;div&gt;&lt;br&gt;&lt;/div&gt;&lt;div&gt;Sharing Alerts&lt;/div&gt;" style="rounded=1;whiteSpace=wrap;html=1;fillColor=#f5f5f5;strokeColor=#666666;fontStyle=1;fontColor=#333333;" parent="1" vertex="1">
          <mxGeometry x="-835" y="45" width="254" height="100" as="geometry" />
        </mxCell>
        <mxCell id="JNNC70xLUOCxBY-MtSvW-15" value="Monitored Application" style="rounded=1;whiteSpace=wrap;html=1;fillColor=#d0cee2;strokeColor=#56517e;fontStyle=1;" parent="1" vertex="1">
          <mxGeometry x="-479" y="-426" width="222" height="100" as="geometry" />
        </mxCell>
        <mxCell id="JNNC70xLUOCxBY-MtSvW-20" style="edgeStyle=orthogonalEdgeStyle;rounded=0;orthogonalLoop=1;jettySize=auto;html=1;" parent="1" source="JNNC70xLUOCxBY-MtSvW-16" target="JNNC70xLUOCxBY-MtSvW-15" edge="1">
          <mxGeometry relative="1" as="geometry" />
        </mxCell>
        <mxCell id="JNNC70xLUOCxBY-MtSvW-16" value="Polling Metrics via Http Request (/metrics) Periodically&lt;div&gt;&lt;span style=&quot;background-color: transparent; color: light-dark(rgb(51, 51, 51), rgb(193, 193, 193));&quot;&gt;(10-second interval)&lt;/span&gt;&lt;/div&gt;" style="rounded=1;whiteSpace=wrap;html=1;fillColor=#f5f5f5;strokeColor=#666666;fontStyle=1;fontColor=#333333;" parent="1" vertex="1">
          <mxGeometry x="-836" y="-426" width="272" height="100" as="geometry" />
        </mxCell>
        <mxCell id="k1iTT2K7MQ_K4zx84KMY-2" style="edgeStyle=orthogonalEdgeStyle;rounded=0;orthogonalLoop=1;jettySize=auto;html=1;" parent="1" source="JNNC70xLUOCxBY-MtSvW-21" target="JNNC70xLUOCxBY-MtSvW-7" edge="1">
          <mxGeometry relative="1" as="geometry">
            <Array as="points">
              <mxPoint x="-891" y="114" />
              <mxPoint x="-891" y="114" />
            </Array>
          </mxGeometry>
        </mxCell>
        <mxCell id="JNNC70xLUOCxBY-MtSvW-21" value="Monitoring Agent" style="rounded=1;whiteSpace=wrap;html=1;fillColor=#647687;strokeColor=#314354;fontStyle=1;fontColor=#ffffff;" parent="1" vertex="1">
          <mxGeometry x="-1159" y="45" width="222" height="100" as="geometry" />
        </mxCell>
        <mxCell id="JNNC70xLUOCxBY-MtSvW-25" style="edgeStyle=orthogonalEdgeStyle;rounded=0;orthogonalLoop=1;jettySize=auto;html=1;" parent="1" source="JNNC70xLUOCxBY-MtSvW-23" target="JNNC70xLUOCxBY-MtSvW-7" edge="1">
          <mxGeometry relative="1" as="geometry">
            <Array as="points">
              <mxPoint x="-531" y="75" />
              <mxPoint x="-531" y="75" />
            </Array>
          </mxGeometry>
        </mxCell>
        <mxCell id="JNNC70xLUOCxBY-MtSvW-23" value="Monitored Application" style="rounded=1;whiteSpace=wrap;html=1;fillColor=#d0cee2;strokeColor=#56517e;fontStyle=1;" parent="1" vertex="1">
          <mxGeometry x="-479" y="45" width="222" height="100" as="geometry" />
        </mxCell>
        <mxCell id="k1iTT2K7MQ_K4zx84KMY-4" value="running tests and collecting data" style="text;html=1;align=center;verticalAlign=middle;whiteSpace=wrap;rounded=0;fontSize=60;fontStyle=1;fontFamily=Helvetica;" parent="1" vertex="1">
          <mxGeometry x="147" y="-844" width="1050" height="138" as="geometry" />
        </mxCell>
        <mxCell id="PLIj2wa3UJK4G8XW_Zh2-5" style="edgeStyle=orthogonalEdgeStyle;rounded=0;orthogonalLoop=1;jettySize=auto;html=1;" parent="1" source="k1iTT2K7MQ_K4zx84KMY-11" target="k1iTT2K7MQ_K4zx84KMY-17" edge="1">
          <mxGeometry relative="1" as="geometry" />
        </mxCell>
        <mxCell id="PLIj2wa3UJK4G8XW_Zh2-11" style="edgeStyle=orthogonalEdgeStyle;rounded=0;orthogonalLoop=1;jettySize=auto;html=1;" parent="1" source="k1iTT2K7MQ_K4zx84KMY-11" target="PLIj2wa3UJK4G8XW_Zh2-9" edge="1">
          <mxGeometry relative="1" as="geometry" />
        </mxCell>
        <mxCell id="k1iTT2K7MQ_K4zx84KMY-11" value="Scenarios" style="rounded=1;whiteSpace=wrap;html=1;fillColor=#b0e3e6;strokeColor=#0e8088;fontStyle=1;fontSize=24;" parent="1" vertex="1">
          <mxGeometry x="504" y="-638" width="296" height="80" as="geometry" />
        </mxCell>
        <mxCell id="k1iTT2K7MQ_K4zx84KMY-14" value="Logging CPU/Memory usage through time with a stress test&lt;div&gt;&lt;br&gt;&lt;/div&gt;&lt;div&gt;Logging transferred bytes - tcpdump/wireshark&lt;/div&gt;&lt;div&gt;&lt;br&gt;&lt;/div&gt;&lt;div&gt;Detecting triggered alerts&lt;/div&gt;" style="rounded=1;whiteSpace=wrap;html=1;fillColor=#e1d5e7;strokeColor=#9673a6;fontStyle=1;fontSize=24;" parent="1" vertex="1">
          <mxGeometry x="214.5" y="365" width="875" height="211" as="geometry" />
        </mxCell>
        <mxCell id="PLIj2wa3UJK4G8XW_Zh2-29" style="edgeStyle=orthogonalEdgeStyle;rounded=0;orthogonalLoop=1;jettySize=auto;html=1;entryX=0.25;entryY=0;entryDx=0;entryDy=0;" parent="1" source="k1iTT2K7MQ_K4zx84KMY-17" target="PLIj2wa3UJK4G8XW_Zh2-28" edge="1">
          <mxGeometry relative="1" as="geometry" />
        </mxCell>
        <mxCell id="k1iTT2K7MQ_K4zx84KMY-17" value="5 min - Baseline (no stress)&lt;div&gt;&lt;br&gt;&lt;/div&gt;&lt;div&gt;5 min - CPU stress&lt;/div&gt;&lt;div&gt;&lt;br&gt;&lt;/div&gt;&lt;div&gt;5 min - De-stressing&lt;/div&gt;" style="rounded=1;whiteSpace=wrap;html=1;fontStyle=1;fontSize=18;fillColor=#f9f7ed;strokeColor=#36393d;" parent="1" vertex="1">
          <mxGeometry x="128" y="-504" width="312" height="200" as="geometry" />
        </mxCell>
        <mxCell id="PLIj2wa3UJK4G8XW_Zh2-3" value="Prometheus&lt;br&gt;(polling)&lt;div&gt;&lt;br&gt;&lt;/div&gt;&lt;div&gt;Requesting metrics&amp;nbsp;&lt;/div&gt;&lt;div&gt;&lt;br&gt;&lt;/div&gt;&lt;div&gt;5-second interval&lt;/div&gt;" style="rounded=1;whiteSpace=wrap;html=1;fontStyle=1;fontSize=18;fillColor=#cce5ff;strokeColor=#36393d;" parent="1" vertex="1">
          <mxGeometry x="218" y="-153" width="400" height="200" as="geometry" />
        </mxCell>
        <mxCell id="PLIj2wa3UJK4G8XW_Zh2-4" value="Monitoring Agent Prototype&lt;br&gt;(EDA)&lt;div&gt;&lt;br&gt;&lt;/div&gt;&lt;div&gt;Sending events&lt;/div&gt;&lt;div&gt;&lt;br&gt;&lt;/div&gt;&lt;div&gt;5-second interval&lt;/div&gt;" style="rounded=1;whiteSpace=wrap;html=1;fontStyle=1;fontSize=18;fillColor=#cce5ff;strokeColor=#36393d;" parent="1" vertex="1">
          <mxGeometry x="709" y="-153" width="400" height="200" as="geometry" />
        </mxCell>
        <mxCell id="PLIj2wa3UJK4G8XW_Zh2-30" style="edgeStyle=orthogonalEdgeStyle;rounded=0;orthogonalLoop=1;jettySize=auto;html=1;entryX=0.75;entryY=0;entryDx=0;entryDy=0;" parent="1" source="PLIj2wa3UJK4G8XW_Zh2-9" target="PLIj2wa3UJK4G8XW_Zh2-28" edge="1">
          <mxGeometry relative="1" as="geometry" />
        </mxCell>
        <mxCell id="PLIj2wa3UJK4G8XW_Zh2-9" value="5 min - Baseline (no stress)&lt;div&gt;&lt;br&gt;&lt;/div&gt;&lt;div&gt;5 min - Memory stress&lt;/div&gt;&lt;div&gt;&lt;br&gt;&lt;/div&gt;&lt;div&gt;5 min - De-stressing&lt;/div&gt;" style="rounded=1;whiteSpace=wrap;html=1;fontStyle=1;fontSize=18;fillColor=#f9f7ed;strokeColor=#36393d;" parent="1" vertex="1">
          <mxGeometry x="870" y="-508" width="312" height="200" as="geometry" />
        </mxCell>
        <mxCell id="PLIj2wa3UJK4G8XW_Zh2-37" style="edgeStyle=orthogonalEdgeStyle;rounded=0;orthogonalLoop=1;jettySize=auto;html=1;" parent="1" source="PLIj2wa3UJK4G8XW_Zh2-33" target="k1iTT2K7MQ_K4zx84KMY-14" edge="1">
          <mxGeometry relative="1" as="geometry" />
        </mxCell>
        <mxCell id="PLIj2wa3UJK4G8XW_Zh2-33" value="DATA" style="rounded=1;whiteSpace=wrap;html=1;fillColor=#cdeb8b;strokeColor=#36393d;fontStyle=1;fontSize=24;" parent="1" vertex="1">
          <mxGeometry x="528" y="166" width="248" height="131" as="geometry" />
        </mxCell>
        <mxCell id="PLIj2wa3UJK4G8XW_Zh2-38" value="&lt;div&gt;&lt;font style=&quot;font-size: 18px;&quot;&gt;&lt;span style=&quot;background-color: transparent; color: light-dark(rgb(255, 255, 255), rgb(18, 18, 18));&quot;&gt;RabbitMQ&amp;nbsp;&lt;/span&gt;&lt;/font&gt;&lt;/div&gt;" style="rounded=1;whiteSpace=wrap;html=1;fillColor=#76608a;strokeColor=#432D57;fontStyle=1;fontColor=#ffffff;" parent="1" vertex="1">
          <mxGeometry x="-3077" y="-282" width="410" height="75" as="geometry" />
        </mxCell>
        <mxCell id="PLIj2wa3UJK4G8XW_Zh2-53" value="EDA" style="text;html=1;align=center;verticalAlign=middle;whiteSpace=wrap;rounded=0;fontSize=48;fontStyle=1;fontFamily=Helvetica;" parent="1" vertex="1">
          <mxGeometry x="-3020" y="-572" width="300" height="60" as="geometry" />
        </mxCell>
        <mxCell id="PLIj2wa3UJK4G8XW_Zh2-54" value="polling" style="text;html=1;align=center;verticalAlign=middle;whiteSpace=wrap;rounded=0;fontSize=48;fontStyle=1;fontFamily=Helvetica;" parent="1" vertex="1">
          <mxGeometry x="-2458" y="-572" width="300" height="60" as="geometry" />
        </mxCell>
        <mxCell id="PLIj2wa3UJK4G8XW_Zh2-60" style="edgeStyle=orthogonalEdgeStyle;rounded=0;orthogonalLoop=1;jettySize=auto;html=1;entryX=0.225;entryY=-0.004;entryDx=0;entryDy=0;entryPerimeter=0;" parent="1" source="PLIj2wa3UJK4G8XW_Zh2-47" target="PLIj2wa3UJK4G8XW_Zh2-38" edge="1">
          <mxGeometry relative="1" as="geometry" />
        </mxCell>
        <mxCell id="PLIj2wa3UJK4G8XW_Zh2-47" value="Monitoring Agent" style="rounded=1;whiteSpace=wrap;html=1;fillColor=#f0a30a;strokeColor=#BD7000;fontStyle=1;fontColor=#000000;movable=1;resizable=1;rotatable=1;deletable=1;editable=1;locked=0;connectable=1;" parent="1" vertex="1">
          <mxGeometry x="-3078" y="-391.0010204081632" width="187" height="75" as="geometry" />
        </mxCell>
        <mxCell id="PLIj2wa3UJK4G8XW_Zh2-42" value="Monitored Application" style="rounded=1;whiteSpace=wrap;html=1;fillColor=#dae8fc;strokeColor=#6c8ebf;fontStyle=1" parent="1" vertex="1">
          <mxGeometry x="-2854" y="-391.00102040816324" width="187" height="75" as="geometry" />
        </mxCell>
        <mxCell id="QCL9CWaMX2KkeLVTbilG-46" value="Monitored Application" style="rounded=1;whiteSpace=wrap;html=1;fillColor=#dae8fc;strokeColor=#6c8ebf;fontStyle=1" parent="1" vertex="1">
          <mxGeometry x="-2457" y="-402" width="300" height="75" as="geometry" />
        </mxCell>
        <mxCell id="PLIj2wa3UJK4G8XW_Zh2-62" style="edgeStyle=orthogonalEdgeStyle;rounded=0;orthogonalLoop=1;jettySize=auto;html=1;entryX=0.772;entryY=0.038;entryDx=0;entryDy=0;entryPerimeter=0;" parent="1" source="PLIj2wa3UJK4G8XW_Zh2-42" target="PLIj2wa3UJK4G8XW_Zh2-38" edge="1">
          <mxGeometry relative="1" as="geometry" />
        </mxCell>
      </root>
    </mxGraphModel>
  </diagram>
</mxfile>
